<?xml version="1.0" encoding="utf-8"?>
<!-- Generator: Adobe Illustrator 18.0.0, SVG Export Plug-In . SVG Version: 6.00 Build 0)  -->
<!DOCTYPE svg PUBLIC "-//W3C//DTD SVG 1.1//EN" "http://www.w3.org/Graphics/SVG/1.1/DTD/svg11.dtd">
<svg version="1.1" id="Layer_1" xmlns="http://www.w3.org/2000/svg" xmlns:xlink="http://www.w3.org/1999/xlink" x="0px" y="0px"
	 viewBox="0 0 16 16" enable-background="new 0 0 16 16" xml:space="preserve">
<g>
	<polygon fill="#FFFFFF" points="3.5,7 1.9,7 1.9,5.5 3.5,5.5 3.5,4 1.9,4 1.9,2.5 5.1,2.5 5.1,3.6 5.8,3.6 5.8,1.3 1.3,1.3 
		1.3,11.1 3.5,11.1 	"/>
	<polygon fill="#3D6380" points="1.9,2.5 1.9,4 3.5,4 3.5,3.6 5.1,3.6 5.1,2.5 	"/>
	<rect x="1.9" y="5.5" fill="#3D6380" width="1.6" height="1.5"/>
	<polygon fill="#FFFFFF" points="10.3,3.6 10.9,3.6 10.9,2.5 14.1,2.5 14.1,4 12.5,4 12.5,5.5 14.1,5.5 14.1,7 12.5,7 12.5,11.1 
		14.8,11.1 14.8,1.3 10.3,1.3 	"/>
	<polygon fill="#3D6380" points="14.1,2.5 10.9,2.5 10.9,3.6 12.5,3.6 12.5,4 14.1,4 	"/>
	<rect x="12.5" y="5.5" fill="#3D6380" width="1.6" height="1.5"/>
	<path fill="#3D6480" d="M16,0H9v3.6H7V0H0v12.4h3.5V16h9v-3.6H16V0z M14.8,11.1h-2.3V7V5.5V4V3.6h-1.6h-0.7V1.3h4.5V11.1z
		 M4.8,14.8V4.9h6.5v9.9H4.8z M1.3,1.3h4.5v2.4H5.1H3.5V4v1.5V7v4.1H1.3V1.3z"/>
	<path fill="#FFFFFF" d="M11.3,4.9H4.8v9.9h6.5V4.9z M6,6.2h4v1.5H6V6.2z M6,9.2h4v1.5H6V9.2z"/>
	<rect x="6" y="6.2" fill="#3D6380" width="4" height="1.5"/>
	<rect x="6" y="9.2" fill="#3D6380" width="4" height="1.5"/>
</g>
</svg>
